# MagicaVoxel @ Ephtracy

# group
o 

# material
mtllib coast_lava_turn.mtl
usemtl palette

# normals
vn -1 0 0
vn 1 0 0
vn 0 0 1
vn 0 0 -1
vn 0 -1 0
vn 0 1 0

# texcoords
vt 0.0683594 0.5
vt 0.0917969 0.5
vt 0.701172 0.5

# verts
v -0.4 0 0.4
v -0.4 0 -0.4
v -0.4 0.1 0.4
v -0.4 0.1 -0.4
v -0.1 0.1 -0.2
v -0.1 0.1 -0.4
v -0.1 0.2 -0.2
v -0.1 0.2 -0.4
v 0 0.1 -0.1
v 0 0.1 -0.2
v 0 0.2 -0.1
v 0 0.2 -0.2
v 0.1 0.1 0
v 0.1 0.1 -0.1
v 0.1 0.2 0
v 0.1 0.2 -0.1
v 0.1 0.2 -0.2
v 0.1 0.2 -0.4
v 0.1 0.3 -0.2
v 0.1 0.3 -0.4
v 0.2 0.1 0.1
v 0.2 0.1 0
v 0.2 0.2 0.1
v 0.2 0.2 0
v 0.2 0.2 -0.1
v 0.2 0.2 -0.2
v 0.2 0.3 -0.1
v 0.2 0.3 -0.2
v 0.4 0 0.4
v 0.4 0 0.3
v 0.4 0 0.2
v 0.4 0 -0.4
v 0.4 0.1 0.4
v 0.4 0.1 0.3
v 0.4 0.1 0.2
v 0.4 0.1 0.1
v 0.4 0.2 0.1
v 0.4 0.2 -0.1
v 0.4 0.3 -0.1
v 0.4 0.3 -0.4
v -0.4 0 0.4
v -0.4 0.1 0.4
v 0.4 0 0.4
v 0.4 0.1 0.4
v 0.2 0.1 0.1
v 0.2 0.2 0.1
v 0.4 0.1 0.1
v 0.4 0.2 0.1
v 0.1 0.1 0
v 0.1 0.2 0
v 0.2 0.1 0
v 0.2 0.2 0
v 0 0.1 -0.1
v 0 0.2 -0.1
v 0.1 0.1 -0.1
v 0.1 0.2 -0.1
v 0.2 0.2 -0.1
v 0.2 0.3 -0.1
v 0.4 0.2 -0.1
v 0.4 0.3 -0.1
v -0.1 0.1 -0.2
v -0.1 0.2 -0.2
v 0 0.1 -0.2
v 0 0.2 -0.2
v 0.1 0.2 -0.2
v 0.1 0.3 -0.2
v 0.2 0.2 -0.2
v 0.2 0.3 -0.2
v -0.4 0 -0.4
v -0.4 0.1 -0.4
v -0.3 0 -0.4
v -0.3 0.1 -0.4
v -0.2 0 -0.4
v -0.2 0.1 -0.4
v -0.1 0.1 -0.4
v -0.1 0.2 -0.4
v 0.1 0.2 -0.4
v 0.1 0.3 -0.4
v 0.4 0 -0.4
v 0.4 0.3 -0.4
v -0.4 0 0.4
v 0.4 0 0.4
v 0.1 0 0.3
v 0.4 0 0.3
v 0 0 0.2
v 0.1 0 0.2
v 0.2 0 0.2
v 0.4 0 0.2
v -0.1 0 0.1
v 0 0 0.1
v 0.1 0 0.1
v 0.2 0 0.1
v -0.2 0 0
v -0.1 0 0
v 0 0 0
v 0.1 0 0
v -0.3 0 -0.1
v -0.2 0 -0.1
v -0.1 0 -0.1
v 0 0 -0.1
v -0.2 0 -0.2
v -0.1 0 -0.2
v -0.4 0 -0.4
v -0.3 0 -0.4
v -0.2 0 -0.4
v 0.4 0 -0.4
v -0.4 0.1 0.4
v 0.4 0.1 0.4
v 0.1 0.1 0.3
v 0.4 0.1 0.3
v 0 0.1 0.2
v 0.1 0.1 0.2
v 0.2 0.1 0.2
v 0.4 0.1 0.2
v -0.1 0.1 0.1
v 0 0.1 0.1
v 0.1 0.1 0.1
v 0.2 0.1 0.1
v 0.4 0.1 0.1
v -0.2 0.1 0
v -0.1 0.1 0
v 0 0.1 0
v 0.1 0.1 0
v 0.2 0.1 0
v -0.3 0.1 -0.1
v -0.2 0.1 -0.1
v -0.1 0.1 -0.1
v 0 0.1 -0.1
v 0.1 0.1 -0.1
v -0.2 0.1 -0.2
v -0.1 0.1 -0.2
v 0 0.1 -0.2
v -0.4 0.1 -0.4
v -0.3 0.1 -0.4
v -0.2 0.1 -0.4
v -0.1 0.1 -0.4
v 0.2 0.2 0.1
v 0.4 0.2 0.1
v 0.1 0.2 0
v 0.2 0.2 0
v 0 0.2 -0.1
v 0.1 0.2 -0.1
v 0.2 0.2 -0.1
v 0.4 0.2 -0.1
v -0.1 0.2 -0.2
v 0 0.2 -0.2
v 0.1 0.2 -0.2
v 0.2 0.2 -0.2
v -0.1 0.2 -0.4
v 0.1 0.2 -0.4
v 0.2 0.3 -0.1
v 0.4 0.3 -0.1
v 0.1 0.3 -0.2
v 0.2 0.3 -0.2
v 0.1 0.3 -0.4
v 0.4 0.3 -0.4

# faces
f 3/1/1 2/1/1 1/1/1
f 4/1/1 2/1/1 3/1/1
f 7/3/1 6/3/1 5/3/1
f 8/3/1 6/3/1 7/3/1
f 11/3/1 10/3/1 9/3/1
f 12/3/1 10/3/1 11/3/1
f 15/3/1 14/3/1 13/3/1
f 16/3/1 14/3/1 15/3/1
f 19/3/1 18/3/1 17/3/1
f 20/3/1 18/3/1 19/3/1
f 23/3/1 22/3/1 21/3/1
f 24/3/1 22/3/1 23/3/1
f 27/3/1 26/3/1 25/3/1
f 28/3/1 26/3/1 27/3/1
f 29/1/2 30/1/2 33/1/2
f 30/2/2 31/2/2 34/2/2
f 33/1/2 30/1/2 34/1/2
f 31/3/2 32/3/2 35/3/2
f 34/2/2 31/2/2 35/2/2
f 35/3/2 32/3/2 36/3/2
f 36/3/2 32/3/2 37/3/2
f 37/3/2 32/3/2 38/3/2
f 38/3/2 32/3/2 39/3/2
f 39/3/2 32/3/2 40/3/2
f 43/1/3 42/1/3 41/1/3
f 44/1/3 42/1/3 43/1/3
f 47/3/3 46/3/3 45/3/3
f 48/3/3 46/3/3 47/3/3
f 51/3/3 50/3/3 49/3/3
f 52/3/3 50/3/3 51/3/3
f 55/3/3 54/3/3 53/3/3
f 56/3/3 54/3/3 55/3/3
f 59/3/3 58/3/3 57/3/3
f 60/3/3 58/3/3 59/3/3
f 63/3/3 62/3/3 61/3/3
f 64/3/3 62/3/3 63/3/3
f 67/3/3 66/3/3 65/3/3
f 68/3/3 66/3/3 67/3/3
f 69/1/4 70/1/4 71/1/4
f 71/1/4 70/1/4 72/1/4
f 71/2/4 72/2/4 73/2/4
f 73/2/4 72/2/4 74/2/4
f 73/3/4 74/3/4 75/3/4
f 75/3/4 76/3/4 77/3/4
f 73/3/4 75/3/4 79/3/4
f 77/3/4 78/3/4 79/3/4
f 75/3/4 77/3/4 79/3/4
f 79/3/4 78/3/4 80/3/4
f 83/1/5 82/1/5 81/1/5
f 84/1/5 82/1/5 83/1/5
f 85/1/5 83/1/5 81/1/5
f 86/2/5 84/2/5 83/2/5
f 86/1/5 83/1/5 85/1/5
f 87/2/5 84/2/5 86/2/5
f 88/2/5 84/2/5 87/2/5
f 89/1/5 85/1/5 81/1/5
f 90/2/5 86/2/5 85/2/5
f 90/1/5 85/1/5 89/1/5
f 90/2/5 87/2/5 86/2/5
f 91/2/5 87/2/5 90/2/5
f 92/3/5 88/3/5 87/3/5
f 92/2/5 87/2/5 91/2/5
f 93/1/5 89/1/5 81/1/5
f 94/2/5 91/2/5 90/2/5
f 94/1/5 89/1/5 93/1/5
f 94/2/5 90/2/5 89/2/5
f 95/2/5 91/2/5 94/2/5
f 96/3/5 92/3/5 91/3/5
f 96/2/5 91/2/5 95/2/5
f 97/1/5 93/1/5 81/1/5
f 98/2/5 95/2/5 94/2/5
f 98/1/5 93/1/5 97/1/5
f 98/2/5 94/2/5 93/2/5
f 99/2/5 95/2/5 98/2/5
f 100/3/5 96/3/5 95/3/5
f 100/2/5 95/2/5 99/2/5
f 101/2/5 99/2/5 98/2/5
f 101/2/5 98/2/5 97/2/5
f 102/3/5 100/3/5 99/3/5
f 102/2/5 99/2/5 101/2/5
f 103/1/5 97/1/5 81/1/5
f 104/2/5 101/2/5 97/2/5
f 104/1/5 97/1/5 103/1/5
f 105/3/5 102/3/5 101/3/5
f 105/2/5 101/2/5 104/2/5
f 106/3/5 88/3/5 92/3/5
f 106/3/5 102/3/5 105/3/5
f 106/3/5 92/3/5 96/3/5
f 106/3/5 100/3/5 102/3/5
f 106/3/5 96/3/5 100/3/5
f 107/1/6 108/1/6 109/1/6
f 109/1/6 108/1/6 110/1/6
f 107/1/6 109/1/6 111/1/6
f 109/2/6 110/2/6 112/2/6
f 111/1/6 109/1/6 112/1/6
f 112/2/6 110/2/6 113/2/6
f 113/2/6 110/2/6 114/2/6
f 107/1/6 111/1/6 115/1/6
f 111/2/6 112/2/6 116/2/6
f 115/1/6 111/1/6 116/1/6
f 112/2/6 113/2/6 116/2/6
f 116/2/6 113/2/6 117/2/6
f 113/3/6 114/3/6 118/3/6
f 117/2/6 113/2/6 118/2/6
f 118/3/6 114/3/6 119/3/6
f 107/1/6 115/1/6 120/1/6
f 116/2/6 117/2/6 121/2/6
f 120/1/6 115/1/6 121/1/6
f 115/2/6 116/2/6 121/2/6
f 121/2/6 117/2/6 122/2/6
f 117/3/6 118/3/6 123/3/6
f 122/2/6 117/2/6 123/2/6
f 123/3/6 118/3/6 124/3/6
f 107/1/6 120/1/6 125/1/6
f 121/2/6 122/2/6 126/2/6
f 125/1/6 120/1/6 126/1/6
f 120/2/6 121/2/6 126/2/6
f 126/2/6 122/2/6 127/2/6
f 122/3/6 123/3/6 128/3/6
f 127/2/6 122/2/6 128/2/6
f 128/3/6 123/3/6 129/3/6
f 126/2/6 127/2/6 130/2/6
f 125/2/6 126/2/6 130/2/6
f 127/3/6 128/3/6 131/3/6
f 130/2/6 127/2/6 131/2/6
f 131/3/6 128/3/6 132/3/6
f 107/1/6 125/1/6 133/1/6
f 125/2/6 130/2/6 134/2/6
f 133/1/6 125/1/6 134/1/6
f 130/3/6 131/3/6 135/3/6
f 134/2/6 130/2/6 135/2/6
f 135/3/6 131/3/6 136/3/6
f 137/3/6 138/3/6 140/3/6
f 139/3/6 140/3/6 142/3/6
f 140/3/6 138/3/6 143/3/6
f 142/3/6 140/3/6 143/3/6
f 143/3/6 138/3/6 144/3/6
f 141/3/6 142/3/6 146/3/6
f 142/3/6 143/3/6 146/3/6
f 146/3/6 143/3/6 147/3/6
f 147/3/6 143/3/6 148/3/6
f 145/3/6 146/3/6 149/3/6
f 146/3/6 147/3/6 149/3/6
f 149/3/6 147/3/6 150/3/6
f 151/3/6 152/3/6 154/3/6
f 153/3/6 154/3/6 155/3/6
f 154/3/6 152/3/6 156/3/6
f 155/3/6 154/3/6 156/3/6
