# MagicaVoxel @ Ephtracy

# group
o 

# material
mtllib bridge.mtl
usemtl palette

# normals
vn -1 0 0
vn 1 0 0
vn 0 0 1
vn 0 0 -1
vn 0 -1 0
vn 0 1 0

# texcoords
vt 0.0214844 0.5
vt 0.208984 0.5
vt 0.373047 0.5
vt 0.658203 0.5
vt 0.888672 0.5

# verts
v -0.4 0 0.4
v -0.4 0 0.2
v -0.4 0 0.1
v -0.4 0 -0.1
v -0.4 0 -0.2
v -0.4 0 -0.4
v -0.4 0.1 0.1
v -0.4 0.1 -0.1
v -0.4 0.2 0.4
v -0.4 0.2 0.2
v -0.4 0.2 0.1
v -0.4 0.2 -0.1
v -0.4 0.2 -0.2
v -0.4 0.2 -0.4
v -0.1 0.2 0.3
v -0.1 0.2 0.2
v -0.1 0.2 0.1
v -0.1 0.2 -0.1
v -0.1 0.2 -0.2
v -0.1 0.2 -0.3
v -0.1 0.3 0.3
v -0.1 0.3 0.2
v -0.1 0.3 0.1
v -0.1 0.3 -0.1
v -0.1 0.3 -0.2
v -0.1 0.3 -0.3
v -0.1 0.4 0.2
v -0.1 0.4 -0.2
v 0.1 0.2 0.3
v 0.1 0.2 0.2
v 0.1 0.2 0.1
v 0.1 0.2 -0.1
v 0.1 0.2 -0.2
v 0.1 0.2 -0.3
v 0.1 0.3 0.3
v 0.1 0.3 0.2
v 0.1 0.3 0.1
v 0.1 0.3 -0.1
v 0.1 0.3 -0.2
v 0.1 0.3 -0.3
v 0.1 0.4 0.2
v 0.1 0.4 -0.2
v 0.4 0 0.4
v 0.4 0 0.2
v 0.4 0 0.1
v 0.4 0 -0.1
v 0.4 0 -0.2
v 0.4 0 -0.4
v 0.4 0.1 0.1
v 0.4 0.1 -0.1
v 0.4 0.2 0.4
v 0.4 0.2 0.2
v 0.4 0.2 0.1
v 0.4 0.2 -0.1
v 0.4 0.2 -0.2
v 0.4 0.2 -0.4
v -0.4 0 0.4
v -0.4 0.2 0.4
v -0.1 0.1 0.4
v -0.1 0.2 0.4
v 0.1 0.1 0.4
v 0.1 0.2 0.4
v 0.4 0 0.4
v 0.4 0.2 0.4
v -0.1 0.2 0.3
v -0.1 0.3 0.3
v 0.1 0.2 0.3
v 0.1 0.3 0.3
v -0.1 0.3 0.2
v -0.1 0.4 0.2
v 0.1 0.3 0.2
v 0.1 0.4 0.2
v -0.4 0.1 -0.1
v -0.4 0.2 -0.1
v -0.1 0.2 -0.1
v -0.1 0.3 -0.1
v 0.1 0.2 -0.1
v 0.1 0.3 -0.1
v 0.4 0.1 -0.1
v 0.4 0.2 -0.1
v -0.4 0.1 0.1
v -0.4 0.2 0.1
v -0.1 0.2 0.1
v -0.1 0.3 0.1
v 0.1 0.2 0.1
v 0.1 0.3 0.1
v 0.4 0.1 0.1
v 0.4 0.2 0.1
v -0.1 0.3 -0.2
v -0.1 0.4 -0.2
v 0.1 0.3 -0.2
v 0.1 0.4 -0.2
v -0.1 0.2 -0.3
v -0.1 0.3 -0.3
v 0.1 0.2 -0.3
v 0.1 0.3 -0.3
v -0.4 0 -0.4
v -0.4 0.2 -0.4
v -0.1 0.1 -0.4
v -0.1 0.2 -0.4
v 0.1 0.1 -0.4
v 0.1 0.2 -0.4
v 0.4 0 -0.4
v 0.4 0.2 -0.4
v -0.4 0 0.4
v 0.4 0 0.4
v -0.4 0 0.2
v 0.4 0 0.2
v -0.4 0 0.1
v 0.4 0 0.1
v -0.4 0 -0.1
v 0.4 0 -0.1
v -0.4 0 -0.2
v 0.4 0 -0.2
v -0.4 0 -0.4
v 0.4 0 -0.4
v -0.1 0.3 0.1
v 0.1 0.3 0.1
v -0.1 0.3 -0.1
v 0.1 0.3 -0.1
v -0.4 0.1 0.1
v 0.4 0.1 0.1
v -0.4 0.1 -0.1
v 0.4 0.1 -0.1
v -0.4 0.2 0.4
v -0.1 0.2 0.4
v 0.1 0.2 0.4
v 0.4 0.2 0.4
v -0.1 0.2 0.3
v 0.1 0.2 0.3
v -0.4 0.2 0.2
v -0.1 0.2 0.2
v 0.1 0.2 0.2
v 0.4 0.2 0.2
v -0.4 0.2 0.1
v -0.1 0.2 0.1
v 0.1 0.2 0.1
v 0.4 0.2 0.1
v -0.4 0.2 -0.1
v -0.1 0.2 -0.1
v 0.1 0.2 -0.1
v 0.4 0.2 -0.1
v -0.4 0.2 -0.2
v -0.1 0.2 -0.2
v 0.1 0.2 -0.2
v 0.4 0.2 -0.2
v -0.1 0.2 -0.3
v 0.1 0.2 -0.3
v -0.4 0.2 -0.4
v -0.1 0.2 -0.4
v 0.1 0.2 -0.4
v 0.4 0.2 -0.4
v -0.1 0.3 0.3
v 0.1 0.3 0.3
v -0.1 0.3 0.2
v 0.1 0.3 0.2
v -0.1 0.3 -0.2
v 0.1 0.3 -0.2
v -0.1 0.3 -0.3
v 0.1 0.3 -0.3
v -0.1 0.4 0.2
v 0.1 0.4 0.2
v -0.1 0.4 -0.2
v 0.1 0.4 -0.2

# faces
f 7/1/1 3/1/1 2/1/1
f 7/4/1 4/4/1 3/4/1
f 8/1/1 5/1/1 4/1/1
f 8/4/1 4/4/1 7/4/1
f 9/5/1 2/5/1 1/5/1
f 10/1/1 7/1/1 2/1/1
f 10/5/1 2/5/1 9/5/1
f 11/1/1 7/1/1 10/1/1
f 12/1/1 5/1/1 8/1/1
f 13/5/1 6/5/1 5/5/1
f 13/1/1 5/1/1 12/1/1
f 14/5/1 6/5/1 13/5/1
f 21/3/1 16/3/1 15/3/1
f 21/3/1 17/3/1 16/3/1
f 22/3/1 17/3/1 21/3/1
f 23/3/1 17/3/1 22/3/1
f 24/3/1 20/3/1 19/3/1
f 24/3/1 19/3/1 18/3/1
f 25/3/1 20/3/1 24/3/1
f 26/3/1 20/3/1 25/3/1
f 27/3/1 23/3/1 22/3/1
f 27/3/1 25/3/1 24/3/1
f 27/3/1 24/3/1 23/3/1
f 28/3/1 25/3/1 27/3/1
f 29/3/2 30/3/2 35/3/2
f 30/3/2 31/3/2 35/3/2
f 35/3/2 31/3/2 36/3/2
f 36/3/2 31/3/2 37/3/2
f 33/3/2 34/3/2 38/3/2
f 32/3/2 33/3/2 38/3/2
f 38/3/2 34/3/2 39/3/2
f 39/3/2 34/3/2 40/3/2
f 36/3/2 37/3/2 41/3/2
f 38/3/2 39/3/2 41/3/2
f 37/3/2 38/3/2 41/3/2
f 41/3/2 39/3/2 42/3/2
f 44/1/2 45/1/2 49/1/2
f 45/4/2 46/4/2 49/4/2
f 46/1/2 47/1/2 50/1/2
f 49/4/2 46/4/2 50/4/2
f 43/5/2 44/5/2 51/5/2
f 44/1/2 49/1/2 52/1/2
f 51/5/2 44/5/2 52/5/2
f 52/1/2 49/1/2 53/1/2
f 50/1/2 47/1/2 54/1/2
f 47/5/2 48/5/2 55/5/2
f 54/1/2 47/1/2 55/1/2
f 55/5/2 48/5/2 56/5/2
f 59/5/3 58/5/3 57/5/3
f 60/5/3 58/5/3 59/5/3
f 61/5/3 59/5/3 57/5/3
f 61/2/3 60/2/3 59/2/3
f 62/2/3 60/2/3 61/2/3
f 63/5/3 61/5/3 57/5/3
f 63/5/3 62/5/3 61/5/3
f 64/5/3 62/5/3 63/5/3
f 67/3/3 66/3/3 65/3/3
f 68/3/3 66/3/3 67/3/3
f 71/3/3 70/3/3 69/3/3
f 72/3/3 70/3/3 71/3/3
f 75/1/3 74/1/3 73/1/3
f 77/1/3 75/1/3 73/1/3
f 77/3/3 76/3/3 75/3/3
f 78/3/3 76/3/3 77/3/3
f 79/1/3 77/1/3 73/1/3
f 80/1/3 77/1/3 79/1/3
f 81/1/4 82/1/4 83/1/4
f 81/1/4 83/1/4 85/1/4
f 83/3/4 84/3/4 85/3/4
f 85/3/4 84/3/4 86/3/4
f 81/1/4 85/1/4 87/1/4
f 87/1/4 85/1/4 88/1/4
f 89/3/4 90/3/4 91/3/4
f 91/3/4 90/3/4 92/3/4
f 93/3/4 94/3/4 95/3/4
f 95/3/4 94/3/4 96/3/4
f 97/5/4 98/5/4 99/5/4
f 99/5/4 98/5/4 100/5/4
f 97/5/4 99/5/4 101/5/4
f 99/2/4 100/2/4 101/2/4
f 101/2/4 100/2/4 102/2/4
f 97/5/4 101/5/4 103/5/4
f 101/5/4 102/5/4 103/5/4
f 103/5/4 102/5/4 104/5/4
f 107/5/5 106/5/5 105/5/5
f 108/5/5 106/5/5 107/5/5
f 109/1/5 108/1/5 107/1/5
f 110/1/5 108/1/5 109/1/5
f 111/4/5 110/4/5 109/4/5
f 112/4/5 110/4/5 111/4/5
f 113/1/5 112/1/5 111/1/5
f 114/1/5 112/1/5 113/1/5
f 115/5/5 114/5/5 113/5/5
f 116/5/5 114/5/5 115/5/5
f 119/3/5 118/3/5 117/3/5
f 120/3/5 118/3/5 119/3/5
f 121/4/6 122/4/6 123/4/6
f 123/4/6 122/4/6 124/4/6
f 125/5/6 126/5/6 129/5/6
f 126/2/6 127/2/6 129/2/6
f 127/5/6 128/5/6 130/5/6
f 129/2/6 127/2/6 130/2/6
f 125/5/6 129/5/6 131/5/6
f 131/5/6 129/5/6 132/5/6
f 130/5/6 128/5/6 133/5/6
f 133/5/6 128/5/6 134/5/6
f 131/1/6 132/1/6 135/1/6
f 135/1/6 132/1/6 136/1/6
f 133/1/6 134/1/6 137/1/6
f 137/1/6 134/1/6 138/1/6
f 139/1/6 140/1/6 143/1/6
f 143/1/6 140/1/6 144/1/6
f 141/1/6 142/1/6 145/1/6
f 145/1/6 142/1/6 146/1/6
f 143/5/6 144/5/6 147/5/6
f 145/5/6 146/5/6 148/5/6
f 143/5/6 147/5/6 149/5/6
f 147/2/6 148/2/6 150/2/6
f 149/5/6 147/5/6 150/5/6
f 148/5/6 146/5/6 151/5/6
f 150/2/6 148/2/6 151/2/6
f 151/5/6 146/5/6 152/5/6
f 153/3/6 154/3/6 155/3/6
f 155/3/6 154/3/6 156/3/6
f 157/3/6 158/3/6 159/3/6
f 159/3/6 158/3/6 160/3/6
f 161/3/6 162/3/6 163/3/6
f 163/3/6 162/3/6 164/3/6
