# MagicaVoxel @ Ephtracy

# group
o 

# material
mtllib river_turn_1.mtl
usemtl palette

# normals
vn -1 0 0
vn 1 0 0
vn 0 0 1
vn 0 0 -1
vn 0 -1 0
vn 0 1 0

# texcoords
vt 0.0214844 0.5
vt 0.658203 0.5
vt 0.888672 0.5

# verts
v -0.4 0 0.4
v -0.4 0 0.2
v -0.4 0 0.1
v -0.4 0 -0.1
v -0.4 0 -0.2
v -0.4 0 -0.4
v -0.4 0.1 0.1
v -0.4 0.1 -0.1
v -0.4 0.2 0.4
v -0.4 0.2 0.2
v -0.4 0.2 0.1
v -0.4 0.2 -0.1
v -0.4 0.2 -0.2
v -0.4 0.2 -0.4
v 0.1 0.1 0.1
v 0.1 0.1 -0.4
v 0.1 0.2 0.1
v 0.1 0.2 -0.4
v -0.1 0.1 -0.1
v -0.1 0.1 -0.4
v -0.1 0.2 -0.1
v -0.1 0.2 -0.4
v 0.4 0 0.4
v 0.4 0 -0.4
v 0.4 0.2 0.4
v 0.4 0.2 -0.4
v -0.4 0 0.4
v -0.4 0.2 0.4
v 0.4 0 0.4
v 0.4 0.2 0.4
v -0.4 0.1 -0.1
v -0.4 0.2 -0.1
v -0.1 0.1 -0.1
v -0.1 0.2 -0.1
v -0.4 0.1 0.1
v -0.4 0.2 0.1
v 0.1 0.1 0.1
v 0.1 0.2 0.1
v -0.4 0 -0.4
v -0.4 0.2 -0.4
v -0.2 0 -0.4
v -0.2 0.2 -0.4
v -0.1 0 -0.4
v -0.1 0.1 -0.4
v -0.1 0.2 -0.4
v 0.1 0 -0.4
v 0.1 0.1 -0.4
v 0.1 0.2 -0.4
v 0.2 0 -0.4
v 0.2 0.2 -0.4
v 0.4 0 -0.4
v 0.4 0.2 -0.4
v -0.4 0 0.4
v 0.4 0 0.4
v -0.4 0 0.2
v 0.2 0 0.2
v -0.4 0 0.1
v 0.1 0 0.1
v -0.4 0 -0.1
v -0.1 0 -0.1
v -0.4 0 -0.2
v -0.2 0 -0.2
v -0.4 0 -0.4
v -0.2 0 -0.4
v -0.1 0 -0.4
v 0.1 0 -0.4
v 0.2 0 -0.4
v 0.4 0 -0.4
v -0.4 0.1 0.1
v 0.1 0.1 0.1
v -0.4 0.1 -0.1
v -0.1 0.1 -0.1
v -0.1 0.1 -0.4
v 0.1 0.1 -0.4
v -0.4 0.2 0.4
v 0.4 0.2 0.4
v -0.4 0.2 0.2
v 0.2 0.2 0.2
v -0.4 0.2 0.1
v 0.1 0.2 0.1
v -0.4 0.2 -0.1
v -0.1 0.2 -0.1
v -0.4 0.2 -0.2
v -0.2 0.2 -0.2
v -0.4 0.2 -0.4
v -0.2 0.2 -0.4
v -0.1 0.2 -0.4
v 0.1 0.2 -0.4
v 0.2 0.2 -0.4
v 0.4 0.2 -0.4

# faces
f 7/1/1 3/1/1 2/1/1
f 7/2/1 4/2/1 3/2/1
f 8/1/1 5/1/1 4/1/1
f 8/2/1 4/2/1 7/2/1
f 9/3/1 2/3/1 1/3/1
f 10/1/1 7/1/1 2/1/1
f 10/3/1 2/3/1 9/3/1
f 11/1/1 7/1/1 10/1/1
f 12/1/1 5/1/1 8/1/1
f 13/3/1 6/3/1 5/3/1
f 13/1/1 5/1/1 12/1/1
f 14/3/1 6/3/1 13/3/1
f 17/1/1 16/1/1 15/1/1
f 18/1/1 16/1/1 17/1/1
f 19/1/2 20/1/2 21/1/2
f 21/1/2 20/1/2 22/1/2
f 23/3/2 24/3/2 25/3/2
f 25/3/2 24/3/2 26/3/2
f 29/3/3 28/3/3 27/3/3
f 30/3/3 28/3/3 29/3/3
f 33/1/3 32/1/3 31/1/3
f 34/1/3 32/1/3 33/1/3
f 35/1/4 36/1/4 37/1/4
f 37/1/4 36/1/4 38/1/4
f 39/3/4 40/3/4 41/3/4
f 41/3/4 40/3/4 42/3/4
f 41/1/4 42/1/4 43/1/4
f 43/1/4 42/1/4 44/1/4
f 44/1/4 42/1/4 45/1/4
f 43/2/4 44/2/4 46/2/4
f 46/2/4 44/2/4 47/2/4
f 46/1/4 47/1/4 49/1/4
f 47/1/4 48/1/4 49/1/4
f 49/1/4 48/1/4 50/1/4
f 49/3/4 50/3/4 51/3/4
f 51/3/4 50/3/4 52/3/4
f 55/3/5 54/3/5 53/3/5
f 56/3/5 54/3/5 55/3/5
f 57/1/5 56/1/5 55/1/5
f 58/1/5 56/1/5 57/1/5
f 59/2/5 58/2/5 57/2/5
f 60/2/5 58/2/5 59/2/5
f 61/1/5 60/1/5 59/1/5
f 62/1/5 60/1/5 61/1/5
f 63/3/5 62/3/5 61/3/5
f 64/1/5 60/1/5 62/1/5
f 64/3/5 62/3/5 63/3/5
f 65/2/5 58/2/5 60/2/5
f 65/1/5 60/1/5 64/1/5
f 66/1/5 56/1/5 58/1/5
f 66/2/5 58/2/5 65/2/5
f 67/3/5 54/3/5 56/3/5
f 67/1/5 56/1/5 66/1/5
f 68/3/5 54/3/5 67/3/5
f 69/2/6 70/2/6 71/2/6
f 71/2/6 70/2/6 72/2/6
f 72/2/6 70/2/6 73/2/6
f 73/2/6 70/2/6 74/2/6
f 75/3/6 76/3/6 77/3/6
f 77/3/6 76/3/6 78/3/6
f 77/1/6 78/1/6 79/1/6
f 79/1/6 78/1/6 80/1/6
f 81/1/6 82/1/6 83/1/6
f 83/1/6 82/1/6 84/1/6
f 83/3/6 84/3/6 85/3/6
f 84/1/6 82/1/6 86/1/6
f 85/3/6 84/3/6 86/3/6
f 86/1/6 82/1/6 87/1/6
f 80/1/6 78/1/6 88/1/6
f 78/3/6 76/3/6 89/3/6
f 88/1/6 78/1/6 89/1/6
f 89/3/6 76/3/6 90/3/6
