# MagicaVoxel @ Ephtracy

# group
o 

# material
mtllib river.mtl
usemtl palette

# normals
vn -1 0 0
vn 1 0 0
vn 0 0 1
vn 0 0 -1
vn 0 -1 0
vn 0 1 0

# texcoords
vt 0.0214844 0.5
vt 0.658203 0.5
vt 0.888672 0.5

# verts
v -0.4 0 0.4
v -0.4 0 0.2
v -0.4 0 0.1
v -0.4 0 -0.1
v -0.4 0 -0.2
v -0.4 0 -0.4
v -0.4 0.1 0.1
v -0.4 0.1 -0.1
v -0.4 0.2 0.4
v -0.4 0.2 0.2
v -0.4 0.2 0.1
v -0.4 0.2 -0.1
v -0.4 0.2 -0.2
v -0.4 0.2 -0.4
v 0.4 0 0.4
v 0.4 0 0.2
v 0.4 0 0.1
v 0.4 0 -0.1
v 0.4 0 -0.2
v 0.4 0 -0.4
v 0.4 0.1 0.1
v 0.4 0.1 -0.1
v 0.4 0.2 0.4
v 0.4 0.2 0.2
v 0.4 0.2 0.1
v 0.4 0.2 -0.1
v 0.4 0.2 -0.2
v 0.4 0.2 -0.4
v -0.4 0 0.4
v -0.4 0.2 0.4
v 0.4 0 0.4
v 0.4 0.2 0.4
v -0.4 0.1 -0.1
v -0.4 0.2 -0.1
v 0.4 0.1 -0.1
v 0.4 0.2 -0.1
v -0.4 0.1 0.1
v -0.4 0.2 0.1
v 0.4 0.1 0.1
v 0.4 0.2 0.1
v -0.4 0 -0.4
v -0.4 0.2 -0.4
v 0.4 0 -0.4
v 0.4 0.2 -0.4
v -0.4 0 0.4
v 0.4 0 0.4
v -0.4 0 0.2
v 0.4 0 0.2
v -0.4 0 0.1
v 0.4 0 0.1
v -0.4 0 -0.1
v 0.4 0 -0.1
v -0.4 0 -0.2
v 0.4 0 -0.2
v -0.4 0 -0.4
v 0.4 0 -0.4
v -0.4 0.1 0.1
v 0.4 0.1 0.1
v -0.4 0.1 -0.1
v 0.4 0.1 -0.1
v -0.4 0.2 0.4
v 0.4 0.2 0.4
v -0.4 0.2 0.2
v 0.4 0.2 0.2
v -0.4 0.2 0.1
v 0.4 0.2 0.1
v -0.4 0.2 -0.1
v 0.4 0.2 -0.1
v -0.4 0.2 -0.2
v 0.4 0.2 -0.2
v -0.4 0.2 -0.4
v 0.4 0.2 -0.4

# faces
f 7/1/1 3/1/1 2/1/1
f 7/2/1 4/2/1 3/2/1
f 8/1/1 5/1/1 4/1/1
f 8/2/1 4/2/1 7/2/1
f 9/3/1 2/3/1 1/3/1
f 10/1/1 7/1/1 2/1/1
f 10/3/1 2/3/1 9/3/1
f 11/1/1 7/1/1 10/1/1
f 12/1/1 5/1/1 8/1/1
f 13/3/1 6/3/1 5/3/1
f 13/1/1 5/1/1 12/1/1
f 14/3/1 6/3/1 13/3/1
f 16/1/2 17/1/2 21/1/2
f 17/2/2 18/2/2 21/2/2
f 18/1/2 19/1/2 22/1/2
f 21/2/2 18/2/2 22/2/2
f 15/3/2 16/3/2 23/3/2
f 16/1/2 21/1/2 24/1/2
f 23/3/2 16/3/2 24/3/2
f 24/1/2 21/1/2 25/1/2
f 22/1/2 19/1/2 26/1/2
f 19/3/2 20/3/2 27/3/2
f 26/1/2 19/1/2 27/1/2
f 27/3/2 20/3/2 28/3/2
f 31/3/3 30/3/3 29/3/3
f 32/3/3 30/3/3 31/3/3
f 35/1/3 34/1/3 33/1/3
f 36/1/3 34/1/3 35/1/3
f 37/1/4 38/1/4 39/1/4
f 39/1/4 38/1/4 40/1/4
f 41/3/4 42/3/4 43/3/4
f 43/3/4 42/3/4 44/3/4
f 47/3/5 46/3/5 45/3/5
f 48/3/5 46/3/5 47/3/5
f 49/1/5 48/1/5 47/1/5
f 50/1/5 48/1/5 49/1/5
f 51/2/5 50/2/5 49/2/5
f 52/2/5 50/2/5 51/2/5
f 53/1/5 52/1/5 51/1/5
f 54/1/5 52/1/5 53/1/5
f 55/3/5 54/3/5 53/3/5
f 56/3/5 54/3/5 55/3/5
f 57/2/6 58/2/6 59/2/6
f 59/2/6 58/2/6 60/2/6
f 61/3/6 62/3/6 63/3/6
f 63/3/6 62/3/6 64/3/6
f 63/1/6 64/1/6 65/1/6
f 65/1/6 64/1/6 66/1/6
f 67/1/6 68/1/6 69/1/6
f 69/1/6 68/1/6 70/1/6
f 69/3/6 70/3/6 71/3/6
f 71/3/6 70/3/6 72/3/6
