# MagicaVoxel @ Ephtracy

# group
o 

# material
mtllib road_crossing.mtl
usemtl palette

# normals
vn -1 0 0
vn 1 0 0
vn 0 0 1
vn 0 0 -1
vn 0 -1 0
vn 0 1 0

# texcoords
vt 0.208984 0.5
vt 0.373047 0.5
vt 0.888672 0.5

# verts
v -0.4 0 0.4
v -0.4 0 -0.4
v -0.4 0.1 0.1
v -0.4 0.1 -0.1
v -0.4 0.2 0.4
v -0.4 0.2 0.1
v -0.4 0.2 -0.1
v -0.4 0.2 -0.4
v 0 0.4 0
v 0 0.4 -0.1
v 0 0.5 0
v 0 0.5 -0.1
v 0.1 0.2 0
v 0.1 0.2 -0.1
v 0.1 0.3 0.1
v 0.1 0.3 0
v 0.1 0.4 0.1
v 0.1 0.4 0
v 0.1 0.4 -0.1
v 0.1 0.5 0
v 0.1 0.5 -0.1
v 0.1 0.5 -0.2
v 0.1 0.6 -0.1
v 0.1 0.6 -0.2
v 0.1 0.7 0
v 0.1 0.7 -0.1
v 0.2 0.2 0
v 0.2 0.2 -0.1
v 0.2 0.3 0.1
v 0.2 0.3 0
v 0.2 0.4 0.1
v 0.2 0.4 0
v 0.2 0.5 -0.1
v 0.2 0.5 -0.2
v 0.2 0.6 -0.1
v 0.2 0.6 -0.2
v 0.2 0.7 0
v 0.2 0.7 -0.1
v 0.4 0 0.4
v 0.4 0 -0.4
v 0.4 0.2 0.4
v 0.4 0.2 -0.4
v -0.4 0 0.4
v -0.4 0.2 0.4
v -0.1 0.1 0.4
v -0.1 0.2 0.4
v 0.1 0.1 0.4
v 0.1 0.2 0.4
v 0.4 0 0.4
v 0.4 0.2 0.4
v 0.1 0.3 0.1
v 0.1 0.4 0.1
v 0.2 0.3 0.1
v 0.2 0.4 0.1
v 0 0.4 0
v 0 0.5 0
v 0.1 0.2 0
v 0.1 0.3 0
v 0.1 0.4 0
v 0.1 0.5 0
v 0.1 0.7 0
v 0.2 0.2 0
v 0.2 0.3 0
v 0.2 0.4 0
v 0.2 0.7 0
v 0 0.4 -0.1
v 0 0.5 -0.1
v 0.1 0.2 -0.1
v 0.1 0.4 -0.1
v 0.1 0.5 -0.1
v 0.1 0.6 -0.1
v 0.1 0.7 -0.1
v 0.2 0.2 -0.1
v 0.2 0.5 -0.1
v 0.2 0.6 -0.1
v 0.2 0.7 -0.1
v 0.1 0.5 -0.2
v 0.1 0.6 -0.2
v 0.2 0.5 -0.2
v 0.2 0.6 -0.2
v -0.4 0 -0.4
v -0.4 0.2 -0.4
v -0.1 0.1 -0.4
v -0.1 0.2 -0.4
v 0.1 0.1 -0.4
v 0.1 0.2 -0.4
v 0.4 0 -0.4
v 0.4 0.2 -0.4
v -0.4 0 0.4
v 0.4 0 0.4
v -0.4 0 -0.4
v 0.4 0 -0.4
v 0.1 0.3 0.1
v 0.2 0.3 0.1
v 0.1 0.3 0
v 0.2 0.3 0
v 0 0.4 0
v 0.1 0.4 0
v 0 0.4 -0.1
v 0.1 0.4 -0.1
v 0.1 0.5 -0.1
v 0.2 0.5 -0.1
v 0.1 0.5 -0.2
v 0.2 0.5 -0.2
v -0.4 0.2 0.4
v -0.1 0.2 0.4
v 0.1 0.2 0.4
v 0.4 0.2 0.4
v 0.1 0.2 0.3
v 0.2 0.2 0.3
v -0.4 0.2 0.1
v -0.1 0.2 0.1
v 0.1 0.2 0.1
v 0.2 0.2 0.1
v 0.1 0.2 0
v 0.2 0.2 0
v -0.4 0.2 -0.1
v -0.1 0.2 -0.1
v 0.1 0.2 -0.1
v 0.2 0.2 -0.1
v 0.1 0.2 -0.3
v 0.2 0.2 -0.3
v -0.4 0.2 -0.4
v -0.1 0.2 -0.4
v 0.1 0.2 -0.4
v 0.4 0.2 -0.4
v 0.1 0.4 0.1
v 0.2 0.4 0.1
v 0.1 0.4 0
v 0.2 0.4 0
v 0 0.5 0
v 0.1 0.5 0
v 0 0.5 -0.1
v 0.1 0.5 -0.1
v 0.1 0.6 -0.1
v 0.2 0.6 -0.1
v 0.1 0.6 -0.2
v 0.2 0.6 -0.2
v 0.1 0.7 0
v 0.2 0.7 0
v 0.1 0.7 -0.1
v 0.2 0.7 -0.1

# faces
f 3/3/1 2/3/1 1/3/1
f 4/3/1 2/3/1 3/3/1
f 5/3/1 3/3/1 1/3/1
f 6/1/1 4/1/1 3/1/1
f 6/3/1 3/3/1 5/3/1
f 7/3/1 2/3/1 4/3/1
f 7/1/1 4/1/1 6/1/1
f 8/3/1 2/3/1 7/3/1
f 11/2/1 10/2/1 9/2/1
f 12/2/1 10/2/1 11/2/1
f 16/2/1 14/2/1 13/2/1
f 17/2/1 16/2/1 15/2/1
f 18/2/1 14/2/1 16/2/1
f 18/2/1 16/2/1 17/2/1
f 19/2/1 14/2/1 18/2/1
f 23/2/1 21/2/1 20/2/1
f 23/2/1 22/2/1 21/2/1
f 24/2/1 22/2/1 23/2/1
f 25/2/1 23/2/1 20/2/1
f 26/2/1 23/2/1 25/2/1
f 27/2/2 28/2/2 30/2/2
f 29/2/2 30/2/2 31/2/2
f 30/2/2 28/2/2 32/2/2
f 31/2/2 30/2/2 32/2/2
f 32/2/2 28/2/2 33/2/2
f 32/2/2 33/2/2 35/2/2
f 33/2/2 34/2/2 35/2/2
f 35/2/2 34/2/2 36/2/2
f 32/2/2 35/2/2 37/2/2
f 37/2/2 35/2/2 38/2/2
f 39/3/2 40/3/2 41/3/2
f 41/3/2 40/3/2 42/3/2
f 45/3/3 44/3/3 43/3/3
f 46/3/3 44/3/3 45/3/3
f 47/3/3 45/3/3 43/3/3
f 47/1/3 46/1/3 45/1/3
f 48/1/3 46/1/3 47/1/3
f 49/3/3 47/3/3 43/3/3
f 49/3/3 48/3/3 47/3/3
f 50/3/3 48/3/3 49/3/3
f 53/2/3 52/2/3 51/2/3
f 54/2/3 52/2/3 53/2/3
f 59/2/3 56/2/3 55/2/3
f 60/2/3 56/2/3 59/2/3
f 62/2/3 58/2/3 57/2/3
f 63/2/3 58/2/3 62/2/3
f 64/2/3 61/2/3 60/2/3
f 64/2/3 60/2/3 59/2/3
f 65/2/3 61/2/3 64/2/3
f 66/2/4 67/2/4 69/2/4
f 69/2/4 67/2/4 70/2/4
f 68/2/4 69/2/4 73/2/4
f 69/2/4 70/2/4 73/2/4
f 73/2/4 70/2/4 74/2/4
f 71/2/4 72/2/4 75/2/4
f 75/2/4 72/2/4 76/2/4
f 77/2/4 78/2/4 79/2/4
f 79/2/4 78/2/4 80/2/4
f 81/3/4 82/3/4 83/3/4
f 83/3/4 82/3/4 84/3/4
f 81/3/4 83/3/4 85/3/4
f 83/1/4 84/1/4 85/1/4
f 85/1/4 84/1/4 86/1/4
f 81/3/4 85/3/4 87/3/4
f 85/3/4 86/3/4 87/3/4
f 87/3/4 86/3/4 88/3/4
f 91/3/5 90/3/5 89/3/5
f 92/3/5 90/3/5 91/3/5
f 95/2/5 94/2/5 93/2/5
f 96/2/5 94/2/5 95/2/5
f 99/2/5 98/2/5 97/2/5
f 100/2/5 98/2/5 99/2/5
f 103/2/5 102/2/5 101/2/5
f 104/2/5 102/2/5 103/2/5
f 106/1/6 107/1/6 109/1/6
f 107/3/6 108/3/6 109/3/6
f 109/3/6 108/3/6 110/3/6
f 105/3/6 106/3/6 111/3/6
f 106/1/6 109/1/6 112/1/6
f 111/3/6 106/3/6 112/3/6
f 109/1/6 110/1/6 112/1/6
f 112/1/6 110/1/6 113/1/6
f 110/3/6 108/3/6 114/3/6
f 113/1/6 110/1/6 114/1/6
f 112/1/6 113/1/6 115/1/6
f 111/1/6 112/1/6 115/1/6
f 113/3/6 114/3/6 115/3/6
f 114/3/6 108/3/6 116/3/6
f 115/3/6 114/3/6 116/3/6
f 111/1/6 115/1/6 117/1/6
f 117/1/6 115/1/6 118/1/6
f 118/1/6 115/1/6 119/1/6
f 116/3/6 108/3/6 120/3/6
f 118/1/6 119/1/6 121/1/6
f 119/1/6 120/1/6 121/1/6
f 120/3/6 108/3/6 122/3/6
f 121/1/6 120/1/6 122/1/6
f 117/3/6 118/3/6 123/3/6
f 118/1/6 121/1/6 124/1/6
f 123/3/6 118/3/6 124/3/6
f 121/3/6 122/3/6 125/3/6
f 124/1/6 121/1/6 125/1/6
f 122/3/6 108/3/6 126/3/6
f 125/3/6 122/3/6 126/3/6
f 127/2/6 128/2/6 129/2/6
f 129/2/6 128/2/6 130/2/6
f 131/2/6 132/2/6 133/2/6
f 133/2/6 132/2/6 134/2/6
f 135/2/6 136/2/6 137/2/6
f 137/2/6 136/2/6 138/2/6
f 139/2/6 140/2/6 141/2/6
f 141/2/6 140/2/6 142/2/6
