# MagicaVoxel @ Ephtracy

# group
o 

# material
mtllib wall_turn_1.mtl
usemtl palette

# normals
vn -1 0 0
vn 1 0 0
vn 0 0 1
vn 0 0 -1
vn 0 -1 0
vn 0 1 0

# texcoords
vt 0.310547 0.5
vt 0.888672 0.5
vt 0.978516 0.5

# verts
v -0.4 0 0.4
v -0.4 0 -0.4
v -0.4 0.2 0.4
v -0.4 0.2 -0.4
v -0.1 0.2 0.1
v -0.1 0.2 -0.4
v -0.1 0.6 0
v -0.1 0.6 -0.1
v -0.1 0.6 -0.3
v -0.1 0.6 -0.4
v -0.1 0.7 0.1
v -0.1 0.7 0
v -0.1 0.7 -0.1
v -0.1 0.7 -0.3
v 0.1 0.6 0.1
v 0.1 0.6 0
v 0.1 0.7 0.1
v 0.1 0.7 0
v 0 0.5 0
v 0 0.5 -0.4
v 0 0.6 0.1
v 0 0.6 0
v 0 0.6 -0.1
v 0 0.6 -0.3
v 0 0.6 -0.4
v 0 0.7 0.1
v 0 0.7 0
v 0 0.7 -0.1
v 0 0.7 -0.3
v 0.2 0.2 -0.2
v 0.2 0.2 -0.4
v 0.2 0.5 -0.2
v 0.2 0.5 -0.4
v 0.3 0.6 0.1
v 0.3 0.6 0
v 0.3 0.7 0.1
v 0.3 0.7 0
v 0.4 0 0.4
v 0.4 0 -0.4
v 0.4 0.1 0.1
v 0.4 0.1 -0.2
v 0.4 0.1 -0.4
v 0.4 0.2 0.4
v 0.4 0.2 0.1
v 0.4 0.2 -0.2
v 0.4 0.2 -0.4
v 0.4 0.5 0
v 0.4 0.5 -0.2
v 0.4 0.6 0.1
v 0.4 0.6 0
v -0.4 0 0.4
v -0.4 0.2 0.4
v 0.4 0 0.4
v 0.4 0.2 0.4
v -0.1 0.2 0.1
v -0.1 0.7 0.1
v 0 0.6 0.1
v 0 0.7 0.1
v 0.1 0.6 0.1
v 0.1 0.7 0.1
v 0.3 0.6 0.1
v 0.3 0.7 0.1
v 0.4 0.2 0.1
v 0.4 0.6 0.1
v -0.1 0.6 -0.1
v -0.1 0.7 -0.1
v 0 0.6 -0.1
v 0 0.7 -0.1
v -0.1 0.6 0
v -0.1 0.7 0
v 0 0.5 0
v 0 0.6 0
v 0 0.7 0
v 0.1 0.6 0
v 0.1 0.7 0
v 0.3 0.6 0
v 0.3 0.7 0
v 0.4 0.5 0
v 0.4 0.6 0
v 0.2 0.2 -0.2
v 0.2 0.5 -0.2
v 0.4 0.2 -0.2
v 0.4 0.5 -0.2
v -0.1 0.6 -0.3
v -0.1 0.7 -0.3
v 0 0.6 -0.3
v 0 0.7 -0.3
v -0.4 0 -0.4
v -0.4 0.2 -0.4
v -0.1 0.1 -0.4
v -0.1 0.2 -0.4
v -0.1 0.6 -0.4
v 0 0.5 -0.4
v 0 0.6 -0.4
v 0.2 0.1 -0.4
v 0.2 0.2 -0.4
v 0.2 0.5 -0.4
v 0.4 0 -0.4
v 0.4 0.1 -0.4
v 0.4 0.2 -0.4
v -0.4 0 0.4
v 0.4 0 0.4
v -0.4 0 -0.4
v 0.4 0 -0.4
v -0.4 0.2 0.4
v 0.4 0.2 0.4
v -0.1 0.2 0.1
v 0.4 0.2 0.1
v 0.2 0.2 -0.2
v 0.4 0.2 -0.2
v -0.4 0.2 -0.4
v -0.1 0.2 -0.4
v 0.2 0.2 -0.4
v 0.4 0.2 -0.4
v 0 0.5 0
v 0.4 0.5 0
v 0.2 0.5 -0.2
v 0.4 0.5 -0.2
v 0 0.5 -0.4
v 0.2 0.5 -0.4
v 0 0.6 0.1
v 0.1 0.6 0.1
v 0.3 0.6 0.1
v 0.4 0.6 0.1
v -0.1 0.6 0
v 0 0.6 0
v 0.1 0.6 0
v 0.3 0.6 0
v 0.4 0.6 0
v -0.1 0.6 -0.1
v 0 0.6 -0.1
v -0.1 0.6 -0.3
v 0 0.6 -0.3
v -0.1 0.6 -0.4
v 0 0.6 -0.4
v -0.1 0.7 0.1
v 0 0.7 0.1
v 0.1 0.7 0.1
v 0.3 0.7 0.1
v -0.1 0.7 0
v 0 0.7 0
v 0.1 0.7 0
v 0.3 0.7 0
v -0.1 0.7 -0.1
v 0 0.7 -0.1
v -0.1 0.7 -0.3
v 0 0.7 -0.3

# faces
f 3/2/1 2/2/1 1/2/1
f 4/2/1 2/2/1 3/2/1
f 7/3/1 6/3/1 5/3/1
f 8/3/1 6/3/1 7/3/1
f 9/3/1 6/3/1 8/3/1
f 10/3/1 6/3/1 9/3/1
f 11/3/1 7/3/1 5/3/1
f 12/3/1 7/3/1 11/3/1
f 13/3/1 9/3/1 8/3/1
f 14/3/1 9/3/1 13/3/1
f 17/3/1 16/3/1 15/3/1
f 18/3/1 16/3/1 17/3/1
f 19/3/2 20/3/2 22/3/2
f 22/3/2 20/3/2 23/3/2
f 23/3/2 20/3/2 24/3/2
f 24/3/2 20/3/2 25/3/2
f 21/3/2 22/3/2 26/3/2
f 26/3/2 22/3/2 27/3/2
f 23/3/2 24/3/2 28/3/2
f 28/3/2 24/3/2 29/3/2
f 30/3/2 31/3/2 32/3/2
f 32/3/2 31/3/2 33/3/2
f 34/3/2 35/3/2 36/3/2
f 36/3/2 35/3/2 37/3/2
f 38/2/2 39/2/2 40/2/2
f 40/2/2 39/2/2 41/2/2
f 41/2/2 39/2/2 42/2/2
f 38/2/2 40/2/2 43/2/2
f 40/3/2 41/3/2 44/3/2
f 43/2/2 40/2/2 44/2/2
f 41/1/2 42/1/2 45/1/2
f 44/3/2 41/3/2 45/3/2
f 45/1/2 42/1/2 46/1/2
f 44/3/2 45/3/2 47/3/2
f 47/3/2 45/3/2 48/3/2
f 44/3/2 47/3/2 49/3/2
f 49/3/2 47/3/2 50/3/2
f 53/2/3 52/2/3 51/2/3
f 54/2/3 52/2/3 53/2/3
f 57/3/3 56/3/3 55/3/3
f 58/3/3 56/3/3 57/3/3
f 59/3/3 57/3/3 55/3/3
f 61/3/3 59/3/3 55/3/3
f 61/3/3 60/3/3 59/3/3
f 62/3/3 60/3/3 61/3/3
f 63/3/3 61/3/3 55/3/3
f 64/3/3 61/3/3 63/3/3
f 67/3/3 66/3/3 65/3/3
f 68/3/3 66/3/3 67/3/3
f 69/3/4 70/3/4 72/3/4
f 72/3/4 70/3/4 73/3/4
f 71/3/4 72/3/4 74/3/4
f 71/3/4 74/3/4 76/3/4
f 74/3/4 75/3/4 76/3/4
f 76/3/4 75/3/4 77/3/4
f 71/3/4 76/3/4 78/3/4
f 78/3/4 76/3/4 79/3/4
f 80/3/4 81/3/4 82/3/4
f 82/3/4 81/3/4 83/3/4
f 84/3/4 85/3/4 86/3/4
f 86/3/4 85/3/4 87/3/4
f 88/2/4 89/2/4 90/2/4
f 90/2/4 89/2/4 91/2/4
f 90/3/4 91/3/4 93/3/4
f 91/3/4 92/3/4 93/3/4
f 93/3/4 92/3/4 94/3/4
f 88/2/4 90/2/4 95/2/4
f 90/3/4 93/3/4 95/3/4
f 95/3/4 93/3/4 96/3/4
f 96/3/4 93/3/4 97/3/4
f 88/2/4 95/2/4 98/2/4
f 95/1/4 96/1/4 99/1/4
f 98/2/4 95/2/4 99/2/4
f 99/1/4 96/1/4 100/1/4
f 103/2/5 102/2/5 101/2/5
f 104/2/5 102/2/5 103/2/5
f 105/2/6 106/2/6 107/2/6
f 107/2/6 106/2/6 108/2/6
f 105/2/6 107/2/6 111/2/6
f 111/2/6 107/2/6 112/2/6
f 109/1/6 110/1/6 113/1/6
f 113/1/6 110/1/6 114/1/6
f 115/3/6 116/3/6 117/3/6
f 117/3/6 116/3/6 118/3/6
f 115/3/6 117/3/6 119/3/6
f 119/3/6 117/3/6 120/3/6
f 121/3/6 122/3/6 126/3/6
f 126/3/6 122/3/6 127/3/6
f 123/3/6 124/3/6 128/3/6
f 128/3/6 124/3/6 129/3/6
f 125/3/6 126/3/6 130/3/6
f 130/3/6 126/3/6 131/3/6
f 132/3/6 133/3/6 134/3/6
f 134/3/6 133/3/6 135/3/6
f 136/3/6 137/3/6 140/3/6
f 140/3/6 137/3/6 141/3/6
f 138/3/6 139/3/6 142/3/6
f 142/3/6 139/3/6 143/3/6
f 144/3/6 145/3/6 146/3/6
f 146/3/6 145/3/6 147/3/6
