# MagicaVoxel @ Ephtracy

# group
o 

# material
mtllib wall.mtl
usemtl palette

# normals
vn -1 0 0
vn 1 0 0
vn 0 0 1
vn 0 0 -1
vn 0 -1 0
vn 0 1 0

# texcoords
vt 0.310547 0.5
vt 0.888672 0.5
vt 0.978516 0.5

# verts
v -0.4 0 0.4
v -0.4 0 -0.4
v -0.4 0.1 0.1
v -0.4 0.1 -0.2
v -0.4 0.1 -0.4
v -0.4 0.2 0.4
v -0.4 0.2 0.1
v -0.4 0.2 -0.2
v -0.4 0.2 -0.4
v -0.4 0.5 0
v -0.4 0.5 -0.2
v -0.4 0.6 0.1
v -0.4 0.6 0
v -0.3 0.6 0.1
v -0.3 0.6 0
v -0.3 0.7 0.1
v -0.3 0.7 0
v 0.1 0.6 0.1
v 0.1 0.6 0
v 0.1 0.7 0.1
v 0.1 0.7 0
v -0.1 0.6 0.1
v -0.1 0.6 0
v -0.1 0.7 0.1
v -0.1 0.7 0
v 0.3 0.6 0.1
v 0.3 0.6 0
v 0.3 0.7 0.1
v 0.3 0.7 0
v 0.4 0 0.4
v 0.4 0 -0.4
v 0.4 0.1 0.1
v 0.4 0.1 -0.2
v 0.4 0.1 -0.4
v 0.4 0.2 0.4
v 0.4 0.2 0.1
v 0.4 0.2 -0.2
v 0.4 0.2 -0.4
v 0.4 0.5 0
v 0.4 0.5 -0.2
v 0.4 0.6 0.1
v 0.4 0.6 0
v -0.4 0 0.4
v -0.4 0.2 0.4
v 0.4 0 0.4
v 0.4 0.2 0.4
v -0.4 0.2 0.1
v -0.4 0.6 0.1
v -0.3 0.6 0.1
v -0.3 0.7 0.1
v -0.1 0.6 0.1
v -0.1 0.7 0.1
v 0.1 0.6 0.1
v 0.1 0.7 0.1
v 0.3 0.6 0.1
v 0.3 0.7 0.1
v 0.4 0.2 0.1
v 0.4 0.6 0.1
v -0.4 0.5 0
v -0.4 0.6 0
v -0.3 0.6 0
v -0.3 0.7 0
v -0.1 0.6 0
v -0.1 0.7 0
v 0.1 0.6 0
v 0.1 0.7 0
v 0.3 0.6 0
v 0.3 0.7 0
v 0.4 0.5 0
v 0.4 0.6 0
v -0.4 0.2 -0.2
v -0.4 0.5 -0.2
v 0.4 0.2 -0.2
v 0.4 0.5 -0.2
v -0.4 0 -0.4
v -0.4 0.1 -0.4
v -0.4 0.2 -0.4
v 0.4 0 -0.4
v 0.4 0.1 -0.4
v 0.4 0.2 -0.4
v -0.4 0 0.4
v 0.4 0 0.4
v -0.4 0 -0.4
v 0.4 0 -0.4
v -0.4 0.2 0.4
v 0.4 0.2 0.4
v -0.4 0.2 0.1
v 0.4 0.2 0.1
v -0.4 0.2 -0.2
v 0.4 0.2 -0.2
v -0.4 0.2 -0.4
v 0.4 0.2 -0.4
v -0.4 0.5 0
v 0.4 0.5 0
v -0.4 0.5 -0.2
v 0.4 0.5 -0.2
v -0.4 0.6 0.1
v -0.3 0.6 0.1
v -0.1 0.6 0.1
v 0.1 0.6 0.1
v 0.3 0.6 0.1
v 0.4 0.6 0.1
v -0.4 0.6 0
v -0.3 0.6 0
v -0.1 0.6 0
v 0.1 0.6 0
v 0.3 0.6 0
v 0.4 0.6 0
v -0.3 0.7 0.1
v -0.1 0.7 0.1
v 0.1 0.7 0.1
v 0.3 0.7 0.1
v -0.3 0.7 0
v -0.1 0.7 0
v 0.1 0.7 0
v 0.3 0.7 0

# faces
f 3/2/1 2/2/1 1/2/1
f 4/2/1 2/2/1 3/2/1
f 5/2/1 2/2/1 4/2/1
f 6/2/1 3/2/1 1/2/1
f 7/3/1 4/3/1 3/3/1
f 7/2/1 3/2/1 6/2/1
f 8/1/1 5/1/1 4/1/1
f 8/3/1 4/3/1 7/3/1
f 9/1/1 5/1/1 8/1/1
f 10/3/1 8/3/1 7/3/1
f 11/3/1 8/3/1 10/3/1
f 12/3/1 10/3/1 7/3/1
f 13/3/1 10/3/1 12/3/1
f 16/3/1 15/3/1 14/3/1
f 17/3/1 15/3/1 16/3/1
f 20/3/1 19/3/1 18/3/1
f 21/3/1 19/3/1 20/3/1
f 22/3/2 23/3/2 24/3/2
f 24/3/2 23/3/2 25/3/2
f 26/3/2 27/3/2 28/3/2
f 28/3/2 27/3/2 29/3/2
f 30/2/2 31/2/2 32/2/2
f 32/2/2 31/2/2 33/2/2
f 33/2/2 31/2/2 34/2/2
f 30/2/2 32/2/2 35/2/2
f 32/3/2 33/3/2 36/3/2
f 35/2/2 32/2/2 36/2/2
f 33/1/2 34/1/2 37/1/2
f 36/3/2 33/3/2 37/3/2
f 37/1/2 34/1/2 38/1/2
f 36/3/2 37/3/2 39/3/2
f 39/3/2 37/3/2 40/3/2
f 36/3/2 39/3/2 41/3/2
f 41/3/2 39/3/2 42/3/2
f 45/2/3 44/2/3 43/2/3
f 46/2/3 44/2/3 45/2/3
f 49/3/3 48/3/3 47/3/3
f 51/3/3 49/3/3 47/3/3
f 51/3/3 50/3/3 49/3/3
f 52/3/3 50/3/3 51/3/3
f 53/3/3 51/3/3 47/3/3
f 55/3/3 53/3/3 47/3/3
f 55/3/3 54/3/3 53/3/3
f 56/3/3 54/3/3 55/3/3
f 57/3/3 55/3/3 47/3/3
f 58/3/3 55/3/3 57/3/3
f 59/3/4 60/3/4 61/3/4
f 59/3/4 61/3/4 63/3/4
f 61/3/4 62/3/4 63/3/4
f 63/3/4 62/3/4 64/3/4
f 59/3/4 63/3/4 65/3/4
f 59/3/4 65/3/4 67/3/4
f 65/3/4 66/3/4 67/3/4
f 67/3/4 66/3/4 68/3/4
f 59/3/4 67/3/4 69/3/4
f 69/3/4 67/3/4 70/3/4
f 71/3/4 72/3/4 73/3/4
f 73/3/4 72/3/4 74/3/4
f 75/2/4 76/2/4 78/2/4
f 76/1/4 77/1/4 79/1/4
f 78/2/4 76/2/4 79/2/4
f 79/1/4 77/1/4 80/1/4
f 83/2/5 82/2/5 81/2/5
f 84/2/5 82/2/5 83/2/5
f 85/2/6 86/2/6 87/2/6
f 87/2/6 86/2/6 88/2/6
f 89/1/6 90/1/6 91/1/6
f 91/1/6 90/1/6 92/1/6
f 93/3/6 94/3/6 95/3/6
f 95/3/6 94/3/6 96/3/6
f 97/3/6 98/3/6 103/3/6
f 103/3/6 98/3/6 104/3/6
f 99/3/6 100/3/6 105/3/6
f 105/3/6 100/3/6 106/3/6
f 101/3/6 102/3/6 107/3/6
f 107/3/6 102/3/6 108/3/6
f 109/3/6 110/3/6 113/3/6
f 113/3/6 110/3/6 114/3/6
f 111/3/6 112/3/6 115/3/6
f 115/3/6 112/3/6 116/3/6
