# MagicaVoxel @ Ephtracy

# group
o 

# material
mtllib wall_corner.mtl
usemtl palette

# normals
vn -1 0 0
vn 1 0 0
vn 0 0 1
vn 0 0 -1
vn 0 -1 0
vn 0 1 0

# texcoords
vt 0.310547 0.5
vt 0.888672 0.5
vt 0.978516 0.5

# verts
v -0.4 0 0.4
v -0.4 0 -0.4
v -0.4 0.1 0.4
v -0.4 0.1 -0.4
v -0.4 0.2 0.4
v -0.4 0.2 -0.4
v -0.2 0.2 0.4
v -0.2 0.2 -0.2
v -0.2 0.3 -0.1
v -0.2 0.3 -0.2
v -0.2 0.4 0
v -0.2 0.4 -0.1
v -0.2 0.5 0.4
v -0.2 0.5 0
v -0.1 0.3 -0.1
v -0.1 0.3 -0.2
v -0.1 0.4 0
v -0.1 0.4 -0.1
v -0.1 0.5 0
v -0.1 0.5 -0.2
v 0 0.5 0.4
v 0 0.5 0
v 0 0.6 0.4
v 0 0.6 0.3
v 0 0.7 0.3
v 0 0.7 0
v 0.1 0.2 0.4
v 0.1 0.2 0.1
v 0.1 0.6 0.4
v 0.1 0.6 0.3
v 0.1 0.7 0.3
v 0.1 0.7 0.1
v 0.3 0.6 0.1
v 0.3 0.6 0
v 0.3 0.7 0.1
v 0.3 0.7 0
v 0.4 0 0.4
v 0.4 0 -0.4
v 0.4 0.1 0.1
v 0.4 0.1 -0.2
v 0.4 0.1 -0.4
v 0.4 0.2 0.4
v 0.4 0.2 0.1
v 0.4 0.2 -0.2
v 0.4 0.2 -0.4
v 0.4 0.5 0
v 0.4 0.5 -0.2
v 0.4 0.6 0.1
v 0.4 0.6 0
v -0.4 0 0.4
v -0.4 0.1 0.4
v -0.4 0.2 0.4
v -0.2 0.1 0.4
v -0.2 0.2 0.4
v -0.2 0.5 0.4
v 0 0.5 0.4
v 0 0.6 0.4
v 0.1 0.1 0.4
v 0.1 0.2 0.4
v 0.1 0.6 0.4
v 0.4 0 0.4
v 0.4 0.2 0.4
v 0 0.6 0.3
v 0 0.7 0.3
v 0.1 0.6 0.3
v 0.1 0.7 0.3
v 0.1 0.2 0.1
v 0.1 0.7 0.1
v 0.3 0.6 0.1
v 0.3 0.7 0.1
v 0.4 0.2 0.1
v 0.4 0.6 0.1
v -0.2 0.4 0
v -0.2 0.5 0
v -0.1 0.4 0
v -0.1 0.5 0
v 0 0.5 0
v 0 0.7 0
v 0.3 0.6 0
v 0.3 0.7 0
v 0.4 0.5 0
v 0.4 0.6 0
v -0.2 0.3 -0.1
v -0.2 0.4 -0.1
v -0.1 0.3 -0.1
v -0.1 0.4 -0.1
v -0.2 0.2 -0.2
v -0.2 0.3 -0.2
v -0.1 0.3 -0.2
v -0.1 0.5 -0.2
v 0.4 0.2 -0.2
v 0.4 0.5 -0.2
v -0.4 0 -0.4
v -0.4 0.1 -0.4
v -0.4 0.2 -0.4
v 0.4 0 -0.4
v 0.4 0.1 -0.4
v 0.4 0.2 -0.4
v -0.4 0 0.4
v 0.4 0 0.4
v -0.4 0 -0.4
v 0.4 0 -0.4
v -0.4 0.2 0.4
v -0.2 0.2 0.4
v 0.1 0.2 0.4
v 0.4 0.2 0.4
v 0.1 0.2 0.1
v 0.4 0.2 0.1
v -0.2 0.2 -0.2
v 0.4 0.2 -0.2
v -0.4 0.2 -0.4
v 0.4 0.2 -0.4
v -0.2 0.3 -0.1
v -0.1 0.3 -0.1
v -0.2 0.3 -0.2
v -0.1 0.3 -0.2
v -0.2 0.4 0
v -0.1 0.4 0
v -0.2 0.4 -0.1
v -0.1 0.4 -0.1
v -0.2 0.5 0.4
v 0 0.5 0.4
v -0.2 0.5 0
v -0.1 0.5 0
v 0 0.5 0
v 0.4 0.5 0
v -0.1 0.5 -0.2
v 0.4 0.5 -0.2
v 0 0.6 0.4
v 0.1 0.6 0.4
v 0 0.6 0.3
v 0.1 0.6 0.3
v 0.3 0.6 0.1
v 0.4 0.6 0.1
v 0.3 0.6 0
v 0.4 0.6 0
v 0 0.7 0.3
v 0.1 0.7 0.3
v 0.1 0.7 0.1
v 0.3 0.7 0.1
v 0 0.7 0
v 0.3 0.7 0

# faces
f 3/2/1 2/2/1 1/2/1
f 4/2/1 2/2/1 3/2/1
f 5/1/1 4/1/1 3/1/1
f 6/1/1 4/1/1 5/1/1
f 9/3/1 8/3/1 7/3/1
f 10/3/1 8/3/1 9/3/1
f 11/3/1 9/3/1 7/3/1
f 12/3/1 9/3/1 11/3/1
f 13/3/1 11/3/1 7/3/1
f 14/3/1 11/3/1 13/3/1
f 18/3/1 16/3/1 15/3/1
f 19/3/1 18/3/1 17/3/1
f 20/3/1 16/3/1 18/3/1
f 20/3/1 18/3/1 19/3/1
f 23/3/1 22/3/1 21/3/1
f 24/3/1 22/3/1 23/3/1
f 25/3/1 22/3/1 24/3/1
f 26/3/1 22/3/1 25/3/1
f 27/3/2 28/3/2 29/3/2
f 29/3/2 28/3/2 30/3/2
f 30/3/2 28/3/2 31/3/2
f 31/3/2 28/3/2 32/3/2
f 33/3/2 34/3/2 35/3/2
f 35/3/2 34/3/2 36/3/2
f 37/2/2 38/2/2 39/2/2
f 39/2/2 38/2/2 40/2/2
f 40/2/2 38/2/2 41/2/2
f 37/2/2 39/2/2 42/2/2
f 39/3/2 40/3/2 43/3/2
f 42/2/2 39/2/2 43/2/2
f 40/1/2 41/1/2 44/1/2
f 43/3/2 40/3/2 44/3/2
f 44/1/2 41/1/2 45/1/2
f 43/3/2 44/3/2 46/3/2
f 46/3/2 44/3/2 47/3/2
f 43/3/2 46/3/2 48/3/2
f 48/3/2 46/3/2 49/3/2
f 53/2/3 51/2/3 50/2/3
f 53/1/3 52/1/3 51/1/3
f 54/1/3 52/1/3 53/1/3
f 56/3/3 54/3/3 53/3/3
f 56/3/3 55/3/3 54/3/3
f 58/2/3 53/2/3 50/2/3
f 58/3/3 57/3/3 56/3/3
f 58/3/3 56/3/3 53/3/3
f 59/3/3 57/3/3 58/3/3
f 60/3/3 57/3/3 59/3/3
f 61/2/3 58/2/3 50/2/3
f 61/2/3 59/2/3 58/2/3
f 62/2/3 59/2/3 61/2/3
f 65/3/3 64/3/3 63/3/3
f 66/3/3 64/3/3 65/3/3
f 69/3/3 68/3/3 67/3/3
f 70/3/3 68/3/3 69/3/3
f 71/3/3 69/3/3 67/3/3
f 72/3/3 69/3/3 71/3/3
f 73/3/4 74/3/4 75/3/4
f 75/3/4 74/3/4 76/3/4
f 77/3/4 78/3/4 79/3/4
f 79/3/4 78/3/4 80/3/4
f 77/3/4 79/3/4 81/3/4
f 81/3/4 79/3/4 82/3/4
f 83/3/4 84/3/4 85/3/4
f 85/3/4 84/3/4 86/3/4
f 87/3/4 88/3/4 89/3/4
f 87/3/4 89/3/4 91/3/4
f 89/3/4 90/3/4 91/3/4
f 91/3/4 90/3/4 92/3/4
f 93/2/4 94/2/4 96/2/4
f 94/1/4 95/1/4 97/1/4
f 96/2/4 94/2/4 97/2/4
f 97/1/4 95/1/4 98/1/4
f 101/2/5 100/2/5 99/2/5
f 102/2/5 100/2/5 101/2/5
f 105/2/6 106/2/6 107/2/6
f 107/2/6 106/2/6 108/2/6
f 103/1/6 104/1/6 109/1/6
f 103/1/6 109/1/6 111/1/6
f 109/1/6 110/1/6 111/1/6
f 111/1/6 110/1/6 112/1/6
f 113/3/6 114/3/6 115/3/6
f 115/3/6 114/3/6 116/3/6
f 117/3/6 118/3/6 119/3/6
f 119/3/6 118/3/6 120/3/6
f 121/3/6 122/3/6 123/3/6
f 123/3/6 122/3/6 124/3/6
f 124/3/6 122/3/6 125/3/6
f 125/3/6 126/3/6 127/3/6
f 124/3/6 125/3/6 127/3/6
f 127/3/6 126/3/6 128/3/6
f 129/3/6 130/3/6 131/3/6
f 131/3/6 130/3/6 132/3/6
f 133/3/6 134/3/6 135/3/6
f 135/3/6 134/3/6 136/3/6
f 137/3/6 138/3/6 139/3/6
f 137/3/6 139/3/6 141/3/6
f 139/3/6 140/3/6 141/3/6
f 141/3/6 140/3/6 142/3/6
